<svg xmlns="http://www.w3.org/2000/svg" viewBox="0 0 101.43 8.28"><defs><style>.cls-1{fill:#13b5ea;}</style></defs><title>CTA_CalculateNow</title><g id="Layer_2" data-name="Layer 2"><g id="Layer_1-2" data-name="Layer 1"><path class="cls-1" d="M0,4.14A4.12,4.12,0,0,1,4.4,0,3.73,3.73,0,0,1,8,2.33l-2.09,1A1.7,1.7,0,0,0,4.4,2.13a1.91,1.91,0,0,0-1.94,2,1.91,1.91,0,0,0,1.94,2A1.7,1.7,0,0,0,5.95,5L8,5.94A3.78,3.78,0,0,1,4.4,8.28,4.12,4.12,0,0,1,0,4.14Z"/><path class="cls-1" d="M14,8.13l-.29-.94H10.85l-.29.94H7.81l3-8h3l3,8ZM12.29,2.51l-.79,2.58h1.58Z"/><path class="cls-1" d="M17.2,8.13v-8h2.42V6h3V8.13Z"/><path class="cls-1" d="M23,4.14A4.12,4.12,0,0,1,27.36,0,3.73,3.73,0,0,1,31,2.33l-2.09,1a1.7,1.7,0,0,0-1.55-1.16,1.91,1.91,0,0,0-1.94,2,1.91,1.91,0,0,0,1.94,2A1.7,1.7,0,0,0,28.9,5l2.09,1a3.78,3.78,0,0,1-3.63,2.34A4.12,4.12,0,0,1,23,4.14Z"/><path class="cls-1" d="M31.75,4.85V.13h2.46V4.76a1.5,1.5,0,0,0,3,0V.13h2.46v4.7c0,2-1.25,3.44-3.95,3.44S31.75,6.82,31.75,4.85Z"/><path class="cls-1" d="M41,8.13v-8h2.42V6h3V8.13Z"/><path class="cls-1" d="M52.72,8.13l-.29-.94H49.56l-.29.94H46.52l3-8h3l3,8ZM51,2.51l-.79,2.58h1.58Z"/><path class="cls-1" d="M56.9,8.13V2.24H54.76V.13h6.7V2.24H59.33V8.13Z"/><path class="cls-1" d="M62.33,8.13v-8H68.4V2.24H64.75V3h3.56V5.15H64.75V6H68.4V8.13Z"/><path class="cls-1" d="M77.91,8.13,75,4.08V8.13H72.54v-8H75l2.78,3.79V.13h2.42v8Z"/><path class="cls-1" d="M81.11,4.14a4.38,4.38,0,0,1,8.76,0,4.38,4.38,0,0,1-8.76,0Zm6.3,0a1.92,1.92,0,1,0-3.84,0,1.92,1.92,0,1,0,3.84,0Z"/><path class="cls-1" d="M96.6,8.13l-1-4.53-1,4.53H92L89.7.13h2.71l1,4.89L94.65.13h1.82L97.69,5l1-4.89h2.72l-2.29,8Z"/></g></g></svg>