<svg xmlns="http://www.w3.org/2000/svg" viewBox="0 0 189.59 190.37"><defs><style>.cls-1{fill:#fff;}.cls-2{fill:#40b4e5;}.cls-3{fill:#022169;}.cls-4{fill:#003da6;}</style></defs><title>RYB_Logo</title><g id="Layer_2" data-name="Layer 2"><g id="Layer_1-2" data-name="Layer 1"><path class="cls-1" d="M119.78,21l-15.12,55.6H89.32L77.82,26.43v7.66H64.92v7.74H76.49V55H64.92v8.48h12.9V76.57H34.32L26,53.41l-.15.15q.07,2.07.15,4.09t.07,4.09V76.57H11V21H25.54a46.77,46.77,0,0,1,9,.81,18.36,18.36,0,0,1,7.12,2.91,14.24,14.24,0,0,1,4.68,5.68A21.3,21.3,0,0,1,48,39.48,17.18,17.18,0,0,1,46,47.88a12.29,12.29,0,0,1-6.56,5.53L49.87,75V21H92.35l3.54,22.86q.51,3.39.85,6.71t.77,6.71h.15q.51-3.39.81-6.71t.88-6.71L103.48,21h16.3M27,46.7a5.62,5.62,0,0,0,2.62-.59,5.72,5.72,0,0,0,1.92-1.58,7.23,7.23,0,0,0,1.18-2.29,8.71,8.71,0,0,0,.41-2.62q0-3.69-2-5.27a7.11,7.11,0,0,0-4.57-1.45h-.52V46.63l1,.07M119.78,10h-16.3a11,11,0,0,0-5.57,1.51A11,11,0,0,0,92.35,10H49.87a11,11,0,0,0-7.31,2.77A31.68,31.68,0,0,0,36.67,11a58,58,0,0,0-11.12-1H11A11,11,0,0,0,0,21v55.6a11,11,0,0,0,11,11h15a11,11,0,0,0,4.13-.8,11,11,0,0,0,4.13.8H77.82A11,11,0,0,0,83.57,86a11,11,0,0,0,5.75,1.62h15.34a11,11,0,0,0,10.63-8.13l15.12-55.6A11,11,0,0,0,119.78,10Zm0,22h0Z"/><path class="cls-1" d="M38.85,79.19l-8.65,21.34v15.73h-10V100.53L11,79.19H21.44l3.44,11.46H25l3.49-11.46H38.85m0-11H28.47a11,11,0,0,0-3.52.58,11,11,0,0,0-3.52-.58H11A11,11,0,0,0,.89,83.53l8.25,19.26v13.47a11,11,0,0,0,11,11h10a11,11,0,0,0,11-11V102.68l7.85-19.35A11,11,0,0,0,38.85,68.17Zm0,22h0Z"/><path class="cls-1" d="M51.38,78.55a11.81,11.81,0,0,1,6.52,1.72,13.94,13.94,0,0,1,4.38,4.47,20.41,20.41,0,0,1,2.48,6.17,29.86,29.86,0,0,1,0,13.62,20.38,20.38,0,0,1-2.48,6.17,13.93,13.93,0,0,1-4.38,4.47,11.82,11.82,0,0,1-6.52,1.72,11.81,11.81,0,0,1-6.52-1.72,13.92,13.92,0,0,1-4.38-4.47A20.38,20.38,0,0,1,38,104.54a29.88,29.88,0,0,1,0-13.62,20.41,20.41,0,0,1,2.48-6.17,13.93,13.93,0,0,1,4.38-4.47,11.81,11.81,0,0,1,6.52-1.72m0,29A2.38,2.38,0,0,0,53,107a4.47,4.47,0,0,0,1.11-1.47,9.16,9.16,0,0,0,.69-2,21.27,21.27,0,0,0,.37-2.19q.12-1.08.15-2t0-1.55q0-.59,0-1.55t-.15-2a21.35,21.35,0,0,0-.37-2.19,9.18,9.18,0,0,0-.69-2A4.5,4.5,0,0,0,53,88.46a2.54,2.54,0,0,0-3.2,0,4.47,4.47,0,0,0-1.11,1.47,9.09,9.09,0,0,0-.69,2,21.05,21.05,0,0,0-.37,2.19q-.12,1.08-.15,2t0,1.55q0,.59,0,1.55t.15,2A21,21,0,0,0,48,103.5a9.07,9.07,0,0,0,.69,2A4.45,4.45,0,0,0,49.79,107a2.38,2.38,0,0,0,1.6.57m0-40A22.67,22.67,0,0,0,38.92,71a24.92,24.92,0,0,0-7.8,8,31.5,31.5,0,0,0-3.84,9.48,40.9,40.9,0,0,0,0,18.57,31.45,31.45,0,0,0,3.84,9.48,24.91,24.91,0,0,0,7.8,8,22.68,22.68,0,0,0,12.47,3.47,22.68,22.68,0,0,0,12.46-3.46,24.94,24.94,0,0,0,7.81-8A31.46,31.46,0,0,0,75.49,107a40.88,40.88,0,0,0,0-18.56A31.5,31.5,0,0,0,71.65,79a24.94,24.94,0,0,0-7.8-8,22.68,22.68,0,0,0-12.47-3.47Z"/><path class="cls-1" d="M91.51,79.19v24.24q0,1.13-.12,2.56a14.86,14.86,0,0,1-.57,2.93,13.76,13.76,0,0,1-1.25,2.93,9,9,0,0,1-2.21,2.56,11,11,0,0,1-3.47,1.82,18.26,18.26,0,0,1-9.93,0,11,11,0,0,1-3.47-1.82,9,9,0,0,1-2.21-2.56A13.82,13.82,0,0,1,67,108.91a14.77,14.77,0,0,1-.57-2.93q-.12-1.43-.12-2.56V79.19h10v24.93a5.12,5.12,0,0,0,.25,1.62,3.12,3.12,0,0,0,.76,1.3,2.1,2.1,0,0,0,1.55.52,2.18,2.18,0,0,0,1.6-.52,2.73,2.73,0,0,0,.71-1.25,5.58,5.58,0,0,0,.25-1.67V79.19h10m0-11h-10a11,11,0,0,0-2.56.3,11,11,0,0,0-2.56-.3h-10a11,11,0,0,0-11,11v24.24c0,1.08.06,2.26.16,3.51a25.84,25.84,0,0,0,1,5.09,24.9,24.9,0,0,0,2.24,5.25A20,20,0,0,0,63.57,123a22,22,0,0,0,6.9,3.7,26.37,26.37,0,0,0,8.45,1.25,26.37,26.37,0,0,0,8.45-1.25,22,22,0,0,0,6.9-3.7,20,20,0,0,0,4.86-5.67,24.85,24.85,0,0,0,2.25-5.27,25.94,25.94,0,0,0,1-5.09c.11-1.26.16-2.44.16-3.51V79.19a11,11,0,0,0-11-11Z"/><path class="cls-1" d="M103.06,79.19a31.12,31.12,0,0,1,6,.54,12.23,12.23,0,0,1,4.75,1.94,9.5,9.5,0,0,1,3.12,3.79,14.19,14.19,0,0,1,1.13,6.07,11.45,11.45,0,0,1-1.38,5.61,8.2,8.2,0,0,1-4.38,3.69l7.47,15.44H108.91l-5.56-15.44-.1.1q0,1.38.1,2.73t0,2.73v9.88h-10V79.19h9.69m1,17.16a3.76,3.76,0,0,0,1.75-.39,3.82,3.82,0,0,0,1.28-1.06,4.81,4.81,0,0,0,.79-1.52,5.84,5.84,0,0,0,.27-1.75,4.24,4.24,0,0,0-1.33-3.52,4.74,4.74,0,0,0-3-1h-.35V96.3l.64,0m-1-28.18H93.38a11,11,0,0,0-11,11v37.08a11,11,0,0,0,11,11h10a11,11,0,0,0,2.76-.35,11,11,0,0,0,2.75.35h10.87a11,11,0,0,0,9.91-15.81l-3.91-8.08q.29-.46.56-.95a22.39,22.39,0,0,0,2.74-10.91,25,25,0,0,0-2.19-10.79,20.43,20.43,0,0,0-6.73-8.07,23.22,23.22,0,0,0-9-3.74,42.27,42.27,0,0,0-8.12-.75Z"/><path class="cls-1" d="M28.75,119.43a30.23,30.23,0,0,1,6.72.77,18.43,18.43,0,0,1,6.17,2.62,14.54,14.54,0,0,1,4.54,4.9A14.88,14.88,0,0,1,48,135.28a12.65,12.65,0,0,1-.74,4.39,10.64,10.64,0,0,1-2.12,3.54,9.65,9.65,0,0,1-3.3,2.36,10.6,10.6,0,0,1-4.31.85v.15q5.53.44,8.41,3.72t2.88,8.89a18.61,18.61,0,0,1-.85,5.38A13.83,13.83,0,0,1,45,169.68a15.36,15.36,0,0,1-5.42,3.83A20.65,20.65,0,0,1,31.22,175H11v-55.6H28.75M26.06,141h.88A8,8,0,0,0,31.11,140a4,4,0,0,0,1.81-3.8,4.18,4.18,0,0,0-1.51-3.61,6.39,6.39,0,0,0-3.87-1.11H26.06V141m0,22h1.25a7.56,7.56,0,0,0,4.39-1.29,4.61,4.61,0,0,0,1.88-4.09,4.52,4.52,0,0,0-1.88-4.06,7.87,7.87,0,0,0-4.46-1.25H26.06V163m2.69-54.6H11a11,11,0,0,0-11,11V175a11,11,0,0,0,11,11h20.2a31.57,31.57,0,0,0,12.89-2.46,26.32,26.32,0,0,0,9.23-6.65,24.84,24.84,0,0,0,5.12-9.18,29.7,29.7,0,0,0,1.32-8.57,24.85,24.85,0,0,0-3.38-13.1,22.44,22.44,0,0,0,1.15-2.61A23.68,23.68,0,0,0,59,135.28a25.12,25.12,0,0,0-11.23-21.63,29.49,29.49,0,0,0-9.82-4.19,41.41,41.41,0,0,0-9.17-1Z"/><path class="cls-1" d="M119.78,119.43h0m0,0L104.66,175H89.32l-11.5-50.13v7.66H64.92v7.74H76.49v13.13H64.92v8.48h12.9V175H49.87v-55.6H92.35l3.54,22.86q.51,3.39.85,6.71t.77,6.71h.15q.51-3.39.81-6.71t.88-6.71l4.13-22.86h16.3m0-11h-16.3a11,11,0,0,0-5.57,1.51,11,11,0,0,0-5.57-1.51H49.87a11,11,0,0,0-11,11V175a11,11,0,0,0,11,11H77.82a11,11,0,0,0,5.75-1.62A11,11,0,0,0,89.32,186h15.34a11,11,0,0,0,10.63-8.13l15-55.31a11,11,0,0,0-10.54-14.2h0Zm0,22h0Z"/><path class="cls-1" d="M150,11h.14c4.19,0,7.92.36,9,1.18s.87,2.92.89,3.91,0,5.49,0,5.49a1.19,1.19,0,0,1,.19.56c0,.34.15,2.44.18,3a.13.13,0,0,1,0,.16c-.13.21-1.77.35-1.77.35s-.05-.16-.08-.24h0A1.52,1.52,0,0,0,160,26.6a2.14,2.14,0,0,1,.62.27.77.77,0,0,1,.24.16l.06.08a.4.4,0,0,1,.14.39.48.48,0,0,1-.25.45,10.4,10.4,0,0,1-2.3.27l.3,0c-.34,0-.63,0-.76,0v2.13a62.11,62.11,0,0,1,15.47,18.16c6.36,11.45,3.85,15.77,3.25,22.41a33.81,33.81,0,0,0,0,7.41v0l0,.28v.16l0,.22,0,.21v.2l0,.25v.2l0,.28v.2l0,.31v.2l0,.34v.21l0,.37v.87c0,.13,0,.27,0,.4v.28c0,.14,0,.29,0,.44s0,.2,0,.3,0,.3,0,.45,0,.22,0,.34,0,.35,0,.53,0,.2,0,.31c0,.29,0,.59,0,.9,0,10.12-.44,20.1-.44,20.1a8.75,8.75,0,0,0-1.18,3.89,2.34,2.34,0,0,0,.67,1.34,2.93,2.93,0,0,1,.27.41l0,.07a4.11,4.11,0,0,1,.21.47l0,.09a5.74,5.74,0,0,1,.17.56v.06c0,.21.09.42.12.65h0c0,.23.06.48.08.73V115q0,.38,0,.78s0,0,0,.07a18,18,0,0,1-.28,3c-.1.58-1.4.27-1.45,1.45,0,.54.81.79,1.07,1.28.43.8.07.77.32,1.39.5,1.21.2,3.29.16,4.72,0,.77-1.45.69-1.39,2.09,0,1,.91.77,1.1,1.34a19.14,19.14,0,0,1,.28,5.89c0,.31-.89.41-1.23.75s-.25,1.52-.13,2.57c.43,3.48,1.33,7.45,1.83,9.6,1.18,5.15,3.25,25.56-4.74,27.22a106.88,106.88,0,0,1-22.19,2.16H150a106.89,106.89,0,0,1-22.2-2.16c-8-1.66-5.92-22.07-4.73-27.22.59-2.56.86-5.82,1.67-9.89.5-2.5-1.15-2.48-1.22-2.85a15.58,15.58,0,0,1-.14-5.5c.61-1.94,1-1.57,1.57-2,.41-.31-1.31-.54-1.43-1.57a33.33,33.33,0,0,1-.36-4.57,4.32,4.32,0,0,1,.85-2.5,3.68,3.68,0,0,1,1.07-.64c-.15-.8-1.06-.56-1.43-1.29a2.19,2.19,0,0,1-.13-.35c0-.05,0-.11,0-.17s0-.15-.05-.23,0-.17,0-.26l0-.15c0-.11,0-.23,0-.34h0c-.05-.6-.06-1.23-.08-1.73,0-.15,0-.28,0-.4a6.93,6.93,0,0,1,.64-3.43c.57-.74,1.44-.22,1.07-.93a14.17,14.17,0,0,1-1.15-4.51s-.44-10-.44-20.1c0-.31,0-.61,0-.9,0-.11,0-.21,0-.31s0-.36,0-.53,0-.21,0-.31,0-.33,0-.48,0-.18,0-.27,0-.31,0-.46V83c0-.14,0-.29,0-.42v-.24c0-.13,0-.27,0-.39v-.23l0-.37v-.2l0-.36v-.17l0-.34v-.17l0-.31v-.16l0-.3v-.14l0-.3v-.1l0-.31v-.08l.06-.77a32.51,32.51,0,0,0-.05-6.79c-.59-6.64-3.11-11,3.26-22.41a62.72,62.72,0,0,1,15.36-18.16V28.2a8.68,8.68,0,0,1-2.15-.26.48.48,0,0,1-.25-.45.41.41,0,0,1,.13-.39l.07-.08a.73.73,0,0,1,.24-.16,2.16,2.16,0,0,1,.61-.27l.72-.19a1.26,1.26,0,0,0,.59-.54,1.67,1.67,0,0,0,0-.18v-.3c-.16.09-.14.16-.14.16a5.28,5.28,0,0,1-1.29-.16c-.59-.14-.4-.21-.4-.21a19.72,19.72,0,0,1,.14-2.92,3.27,3.27,0,0,1,.29-.86c-.29-8-.14-8.5.71-9.28.63-.58,4.36-1.11,8.4-1.11m-7.71,17.17h0M150,0h0c-11.49,0-14.44,2.71-15.85,4a13.14,13.14,0,0,0-4.3,9.06,58.14,58.14,0,0,0,0,6.91q0,.19-.07.39a22.89,22.89,0,0,0-.28,2.89c0,.18,0,.37,0,.56a11.29,11.29,0,0,0-.58,3.84,74.27,74.27,0,0,0-11.56,15.48c-6.48,11.66-6.09,18.63-5,25.89.15,1,.3,1.95.38,2.84a22.14,22.14,0,0,1,0,4.91v.13l-.05.67v.09l0,.33v.13l0,.32v.16l0,.34v.18l0,.36v.2l0,.38v.2l0,.41v.23l0,.42v4.28c0,.31,0,.63,0,1,0,10.25.43,20.17.45,20.59q0,.19,0,.38c0,.46.11,1.14.24,2a19.48,19.48,0,0,0-.82,6.76v.33c0,.5,0,1.18.1,1.94v.2c0,.24,0,.47.08.7l0,.35c0,.16,0,.31.07.45a16.55,16.55,0,0,0-.4,2.89,40.28,40.28,0,0,0,.42,6.34v0a26.28,26.28,0,0,0,.09,9.68v.07a11.21,11.21,0,0,0,.63,2.14c-.15.93-.28,1.79-.4,2.61-.21,1.43-.39,2.67-.59,3.52,0,.2-4.66,21.47,2.78,33.08A16.4,16.4,0,0,0,125.55,188,117.22,117.22,0,0,0,150,190.37h.48A117.21,117.21,0,0,0,174.9,188a16.4,16.4,0,0,0,10.45-7.39c7.44-11.6,2.83-32.88,2.78-33.09-.27-1.17-.8-3.46-1.21-5.79a11.54,11.54,0,0,0,1-3.45h0a33,33,0,0,0-.19-8.12,11.73,11.73,0,0,0,.25-2.15c0-.13,0-.43,0-.68a21.34,21.34,0,0,0-.33-6.33l0-.21a29,29,0,0,0,.45-4.89v-.13c0-.5,0-1,0-1.45v-.18c0-.52-.09-1-.16-1.51v-.12c-.07-.47-.16-.93-.27-1.4l-.06-.25q-.14-.58-.33-1.15a11,11,0,0,0,.42-2.57c0-.42.45-10.34.45-20.59,0-.33,0-.65,0-1V81.28l0-.38v-.24l0-.38V80l0-.35v-.22l0-.32v-.22l0-.29,0-.23,0-.24,0-.25v-.18l0-.3v0l0-.47a22.47,22.47,0,0,1,0-5.06c.08-.89.22-1.83.38-2.83,1.11-7.27,1.5-14.23-5-25.9A73.21,73.21,0,0,0,172.1,28.21a11.21,11.21,0,0,0-.73-4.88c-.1-1.95-.16-2.34-.2-2.67s-.05-.37-.09-.55c0-1.47,0-3.45,0-4.26v-.2c0-2.06,0-8.32-5.33-12.3h0C163,1.36,159.37,0,150.15,0H150Z"/><path class="cls-2" d="M177.4,150c-.5-2.15-1.39-6.13-1.83-9.6-.13-1.05-.29-2.16.13-2.57s1.2-.44,1.23-.75a19.14,19.14,0,0,0-.28-5.89c-.2-.57-1.07-.37-1.1-1.34-.06-1.39,1.37-1.32,1.39-2.09,0-1.43.33-3.5-.16-4.72-.25-.62.11-.59-.32-1.39-.26-.49-1.1-.74-1.07-1.28.05-1.18,1.35-.87,1.45-1.45.54-3.1.31-5.79-.69-7a2.34,2.34,0,0,1-.67-1.34,8.76,8.76,0,0,1,1.18-3.89s.44-10,.44-20.1-.89-9-.3-15.66,3.1-11-3.25-22.41a62.11,62.11,0,0,0-15.47-18.16V28.21c.13,0,.41,0,.76,0l-.3,0a10.4,10.4,0,0,0,2.3-.27.48.48,0,0,0,.25-.45.4.4,0,0,0-.14-.39L160.9,27a.77.77,0,0,0-.24-.16,2.13,2.13,0,0,0-.62-.27,1.52,1.52,0,0,1-1.46-1.16h0c0,.08.08.24.08.24s1.63-.13,1.77-.35a.13.13,0,0,0,0-.16c0-.59-.13-2.69-.18-3a1.19,1.19,0,0,0-.19-.56s0-4.5,0-5.49.15-3.14-.89-3.91-4.84-1.17-9-1.18-7.9.52-8.54,1.11c-.85.78-1,1.25-.71,9.28a3.27,3.27,0,0,0-.29.86,19.72,19.72,0,0,0-.14,2.92s-.19.08.4.21a5.28,5.28,0,0,0,1.29.16s0-.08.14-.16v.3a1.65,1.65,0,0,1,0,.18,1.26,1.26,0,0,1-.59.54l-.72.19a2.16,2.16,0,0,0-.61.27.73.73,0,0,0-.24.16l-.07.08a.41.41,0,0,0-.13.39.48.48,0,0,0,.25.45,8.68,8.68,0,0,0,2.15.26v2.13a62.72,62.72,0,0,0-15.36,18.16c-6.36,11.45-3.85,15.77-3.26,22.41s-.29,5.53-.29,15.66.44,20.1.44,20.1a14.16,14.16,0,0,0,1.15,4.51c.37.71-.51.19-1.07.93a6.93,6.93,0,0,0-.64,3.43c.07.9,0,2.75.43,3.64.37.73,1.28.49,1.43,1.29a3.68,3.68,0,0,0-1.07.64,4.33,4.33,0,0,0-.85,2.5,33.33,33.33,0,0,0,.36,4.57c.12,1,1.84,1.26,1.43,1.57-.57.43-1,.06-1.57,2a15.58,15.58,0,0,0,.14,5.5c.07.38,1.71.36,1.21,2.85-.81,4.07-1.08,7.33-1.67,9.89-1.19,5.15-3.26,25.56,4.73,27.22a106.89,106.89,0,0,0,22.2,2.16h.48a106.88,106.88,0,0,0,22.19-2.16C180.65,175.54,178.58,155.13,177.4,150ZM142.12,28.18h0Z"/><path class="cls-3" d="M34.32,76.57,26,53.41l-.15.15q.07,2.07.15,4.09t.07,4.09V76.57H11V21H25.54a46.77,46.77,0,0,1,9,.81,18.36,18.36,0,0,1,7.12,2.91,14.24,14.24,0,0,1,4.68,5.68A21.3,21.3,0,0,1,48,39.48,17.18,17.18,0,0,1,46,47.88a12.29,12.29,0,0,1-6.56,5.53L50.61,76.57ZM27,46.7a5.62,5.62,0,0,0,2.62-.59,5.72,5.72,0,0,0,1.92-1.58,7.23,7.23,0,0,0,1.18-2.29,8.71,8.71,0,0,0,.41-2.62q0-3.69-2-5.27a7.33,7.33,0,0,0-5.09-1.44V46.63Z"/><path class="cls-3" d="M49.87,21H77.82V34.09H64.92v7.74H76.49V55H64.92v8.48h12.9V76.57H49.87Z"/><path class="cls-3" d="M89.32,76.57,76.57,21H92.35l3.54,22.86q.51,3.39.85,6.71t.77,6.71h.15q.51-3.39.81-6.71t.88-6.71L103.48,21h16.3l-15.12,55.6Z"/><path class="cls-4" d="M20.16,116.26V100.53L11,79.19H21.44l3.44,11.46H25l3.49-11.46H38.85l-8.65,21.34v15.73Z"/><path class="cls-4" d="M37.22,97.73A30.26,30.26,0,0,1,38,90.92a20.41,20.41,0,0,1,2.48-6.17,13.93,13.93,0,0,1,4.38-4.47,11.81,11.81,0,0,1,6.52-1.72,11.81,11.81,0,0,1,6.52,1.72,13.94,13.94,0,0,1,4.38,4.47,20.41,20.41,0,0,1,2.48,6.17,29.86,29.86,0,0,1,0,13.62,20.38,20.38,0,0,1-2.48,6.17,13.93,13.93,0,0,1-4.38,4.47,11.82,11.82,0,0,1-6.52,1.72,11.81,11.81,0,0,1-6.52-1.72,13.92,13.92,0,0,1-4.38-4.47A20.38,20.38,0,0,1,38,104.54,30.25,30.25,0,0,1,37.22,97.73Zm10.23,0q0,.59,0,1.55t.15,2A21,21,0,0,0,48,103.5a9.07,9.07,0,0,0,.69,2A4.45,4.45,0,0,0,49.79,107a2.54,2.54,0,0,0,3.2,0,4.47,4.47,0,0,0,1.11-1.47,9.16,9.16,0,0,0,.69-2,21.28,21.28,0,0,0,.37-2.19q.12-1.08.15-2t0-1.55q0-.59,0-1.55t-.15-2a21.36,21.36,0,0,0-.37-2.19,9.18,9.18,0,0,0-.69-2A4.5,4.5,0,0,0,53,88.46a2.54,2.54,0,0,0-3.2,0,4.47,4.47,0,0,0-1.11,1.47,9.09,9.09,0,0,0-.69,2,21.05,21.05,0,0,0-.37,2.19q-.12,1.08-.15,2T47.45,97.73Z"/><path class="cls-4" d="M91.51,79.19v24.24q0,1.13-.12,2.56a14.85,14.85,0,0,1-.57,2.93,13.76,13.76,0,0,1-1.25,2.93,9,9,0,0,1-2.21,2.56,11,11,0,0,1-3.47,1.82,18.26,18.26,0,0,1-9.93,0,11,11,0,0,1-3.47-1.82,9,9,0,0,1-2.21-2.56A13.82,13.82,0,0,1,67,108.91a14.77,14.77,0,0,1-.57-2.93q-.12-1.43-.12-2.56V79.19h10v24.93a5.12,5.12,0,0,0,.25,1.62,3.12,3.12,0,0,0,.76,1.3,2.1,2.1,0,0,0,1.55.52,2.18,2.18,0,0,0,1.6-.52,2.73,2.73,0,0,0,.71-1.25,5.58,5.58,0,0,0,.25-1.67V79.19Z"/><path class="cls-4" d="M108.91,116.26l-5.56-15.44-.1.1q0,1.38.1,2.73t0,2.73v9.88h-10V79.19h9.69a31.12,31.12,0,0,1,6,.54,12.23,12.23,0,0,1,4.75,1.94,9.5,9.5,0,0,1,3.12,3.79,14.19,14.19,0,0,1,1.13,6.07,11.45,11.45,0,0,1-1.38,5.61,8.2,8.2,0,0,1-4.38,3.69l7.47,15.44ZM104,96.35a3.76,3.76,0,0,0,1.75-.39,3.82,3.82,0,0,0,1.28-1.06,4.81,4.81,0,0,0,.79-1.52,5.84,5.84,0,0,0,.27-1.75,4.24,4.24,0,0,0-1.33-3.52,4.89,4.89,0,0,0-3.39-1V96.3Z"/><path class="cls-2" d="M11,119.43H28.75a30.23,30.23,0,0,1,6.72.77,18.44,18.44,0,0,1,6.17,2.62,14.53,14.53,0,0,1,4.54,4.9A14.88,14.88,0,0,1,48,135.28a12.65,12.65,0,0,1-.74,4.39,10.64,10.64,0,0,1-2.12,3.54,9.65,9.65,0,0,1-3.3,2.36,10.6,10.6,0,0,1-4.31.85v.15q5.53.44,8.41,3.72t2.88,8.89a18.61,18.61,0,0,1-.85,5.38A13.83,13.83,0,0,1,45,169.68a15.36,15.36,0,0,1-5.42,3.83A20.65,20.65,0,0,1,31.22,175H11ZM26.94,141A8,8,0,0,0,31.11,140a4,4,0,0,0,1.81-3.8,4.18,4.18,0,0,0-1.51-3.61,6.39,6.39,0,0,0-3.87-1.11H26.06V141Zm.37,22a7.56,7.56,0,0,0,4.39-1.29,4.61,4.61,0,0,0,1.88-4.09,4.52,4.52,0,0,0-1.88-4.06,7.87,7.87,0,0,0-4.46-1.25H26.06V163Z"/><path class="cls-2" d="M49.87,119.43H77.82v13.13H64.92v7.74H76.49v13.13H64.92v8.48h12.9V175H49.87Z"/><path class="cls-2" d="M89.32,175l-12.76-55.6H92.35l3.54,22.86q.51,3.39.85,6.71t.77,6.71h.15q.51-3.39.81-6.71t.88-6.71l4.13-22.86h16.3L104.66,175Z"/><path class="cls-4" d="M123.35,86.56c0,10.12.44,20.1.44,20.1a14.16,14.16,0,0,0,1.15,4.51c.37.71-.51.19-1.07.93a6.93,6.93,0,0,0-.64,3.43c0,.52,0,1.36.1,2.14H177c.29-2.57,0-4.72-.86-5.78a2.34,2.34,0,0,1-.67-1.34,8.76,8.76,0,0,1,1.18-3.89s.44-10,.44-20.1c0-4.88-.21-7.15-.35-8.93h-53C123.56,79.41,123.35,81.68,123.35,86.56Z"/><path class="cls-3" d="M175.57,140.38c-.13-1.05-.29-2.16.13-2.57s1.2-.44,1.23-.75a19.14,19.14,0,0,0-.28-5.89c-.2-.57-1.07-.37-1.1-1.34-.06-1.39,1.37-1.32,1.39-2.09,0-1.43.33-3.5-.16-4.72-.25-.62.11-.59-.32-1.39-.26-.49-1.1-.74-1.07-1.28.05-1.18,1.35-.87,1.45-1.45.07-.42.13-.83.18-1.23H123.32a4.37,4.37,0,0,0,.33,1.5c.37.73,1.28.49,1.43,1.29a3.68,3.68,0,0,0-1.07.64,4.33,4.33,0,0,0-.85,2.5,33.33,33.33,0,0,0,.36,4.57c.12,1,1.84,1.26,1.43,1.57-.57.43-1,.06-1.57,2a15.58,15.58,0,0,0,.14,5.5c.07.38,1.71.36,1.21,2.85-.81,4.07-1.08,7.33-1.67,9.89-1.19,5.15-3.26,25.56,4.73,27.22a106.89,106.89,0,0,0,22.2,2.16h.48a106.88,106.88,0,0,0,22.19-2.16c8-1.66,5.92-22.07,4.74-27.22C176.9,147.83,176,143.85,175.57,140.38Z"/></g></g></svg>