<svg xmlns="http://www.w3.org/2000/svg" viewBox="0 0 82.42 118.95"><defs><style>.cls-1{fill:#fff;}.cls-2{fill:#13b5ea;}</style></defs><title>Text_HowMuchSugarDoYouSipDaily</title><g id="Layer_2" data-name="Layer 2"><g id="Layer_1-2" data-name="Layer 1"><path class="cls-1" d="M5.48,12.06H3.08v9.13H0V.23H3.08V8.9h2.4V.23H8.56v21H5.48Z"/><path class="cls-1" d="M18.85,16.88a5.7,5.7,0,0,1-.51,2.28,3.93,3.93,0,0,1-1.23,1.54,3.66,3.66,0,0,1-2.37.71,3.74,3.74,0,0,1-2.4-.71,3.84,3.84,0,0,1-1.2-1.54,5.71,5.71,0,0,1-.51-2.28V4.53a5.68,5.68,0,0,1,.51-2.25A3.92,3.92,0,0,1,12.35.71,3.92,3.92,0,0,1,14.74,0a3.83,3.83,0,0,1,2.37.71,4,4,0,0,1,1.23,1.57,5.67,5.67,0,0,1,.51,2.25ZM15.77,4.53a1.9,1.9,0,0,0-.4-1.31A.89.89,0,0,0,14.74,3a1,1,0,0,0-.91.77,2.19,2.19,0,0,0-.11.77V16.88a1.82,1.82,0,0,0,.43,1.31.82.82,0,0,0,.6.23.9.9,0,0,0,.91-.77,2,2,0,0,0,.11-.77Z"/><path class="cls-1" d="M25.35,21.19H23L20.13.23H23l1.23,10.89.06.68h.23l.09-.68L25.9.23h2.22l1.31,10.89.09.68h.23l.06-.68L31,.23h2.85l-2.82,21h-2.4l-1.43-9.92L27.06,10H27l-.17,1.23Z"/><path class="cls-1" d="M44.86,21.19,42.89,8l-.11-.88h-.17V21.19H39.76V.23h3.76l1.83,9.58.14,1.11h.06l.14-1.11L47.51.23h3.76v21H48.43V7.13h-.17L48.14,8l-2,13.18Z"/><path class="cls-1" d="M61.74.23V16.88a5.72,5.72,0,0,1-.51,2.28A3.93,3.93,0,0,1,60,20.7a3.66,3.66,0,0,1-2.37.71,3.75,3.75,0,0,1-2.4-.71A3.85,3.85,0,0,1,54,19.16a5.71,5.71,0,0,1-.51-2.28V.23h3.08V16.88A1.82,1.82,0,0,0,57,18.19a.82.82,0,0,0,.6.23.9.9,0,0,0,.91-.77,2,2,0,0,0,.11-.77V.23Z"/><path class="cls-1" d="M72,14v2.88a5.7,5.7,0,0,1-.51,2.28,3.93,3.93,0,0,1-1.23,1.54,3.66,3.66,0,0,1-2.37.71,3.74,3.74,0,0,1-2.4-.71,3.84,3.84,0,0,1-1.2-1.54,5.71,5.71,0,0,1-.51-2.28V4.53a5.68,5.68,0,0,1,.51-2.25A3.92,3.92,0,0,1,65.51.71,3.92,3.92,0,0,1,67.9,0a3.83,3.83,0,0,1,2.37.71A4,4,0,0,1,71.5,2.28,5.67,5.67,0,0,1,72,4.53V7.42H69.13V4.53a1.8,1.8,0,0,0-.46-1.31A1,1,0,0,0,67,3.76a3.1,3.1,0,0,0-.14.77V16.88a2,2,0,0,0,.48,1.31.82.82,0,0,0,.6.23A1,1,0,0,0,69,17.65a2,2,0,0,0,.11-.77V14Z"/><path class="cls-1" d="M79.34,12.06h-2.4v9.13H73.87V.23h3.08V8.9h2.4V.23h3.08v21H79.34Z"/><path class="cls-2" d="M9.38,33.54A11.26,11.26,0,0,0,9,30.18c-.33-.93-.84-1.59-1.63-1.59C6.07,28.64,5.65,30,5.65,32a7.74,7.74,0,0,0,1.26,3.69c.75,1.31,1.73,2.66,2.71,4.11A52.79,52.79,0,0,1,12.83,45a11.76,11.76,0,0,1,1.49,5.37,10.78,10.78,0,0,1-1.45,6A6.19,6.19,0,0,1,7.33,59c-3.22,0-5-1.21-6.07-3.08A14.64,14.64,0,0,1,0,49l4.95-.47a13,13,0,0,0,.42,4c.33,1.12.89,1.87,2,1.87,1.49,0,2.05-1.59,2.05-3.78a8.53,8.53,0,0,0-1.31-3.78c-.42-.65-.84-1.35-1.31-2.05-1-1.4-2.05-3-3.17-4.71a19.57,19.57,0,0,1-2.47-5.32A9.18,9.18,0,0,1,.7,32a9.58,9.58,0,0,1,1.49-5.41A6.12,6.12,0,0,1,7.28,24c3,0,4.81,1.21,5.79,3a13.38,13.38,0,0,1,1.26,6.07Z"/><path class="cls-2" d="M30.43,24.34V51.6a9.36,9.36,0,0,1-.84,3.73,6.43,6.43,0,0,1-2,2.52A6,6,0,0,1,23.71,59a6.13,6.13,0,0,1-3.92-1.17,6.3,6.3,0,0,1-2-2.52A9.34,9.34,0,0,1,17,51.6V24.34h5V51.6a3,3,0,0,0,.7,2.15,1.34,1.34,0,0,0,1,.37,1.47,1.47,0,0,0,1.49-1.26,3.25,3.25,0,0,0,.19-1.26V24.34Z"/><path class="cls-2" d="M42.19,36.66V31.39a3.11,3.11,0,0,0-.65-2.15,1.45,1.45,0,0,0-1-.37A1.56,1.56,0,0,0,39,30.13a3.58,3.58,0,0,0-.19,1.26V52a3,3,0,0,0,.7,2.15,1.34,1.34,0,0,0,1,.37A1.47,1.47,0,0,0,42,53.28,3.26,3.26,0,0,0,42.19,52V45.81h-2V41.56h7V58.65h-3L43.64,57a5,5,0,0,1-3.92,2,5.11,5.11,0,0,1-3.59-1.17,6.23,6.23,0,0,1-1.77-2.52,9.4,9.4,0,0,1-.56-3.73V31.39a9.3,9.3,0,0,1,.84-3.69A5.92,5.92,0,0,1,40.51,24a6.27,6.27,0,0,1,3.87,1.17,6.56,6.56,0,0,1,2,2.57,9.29,9.29,0,0,1,.84,3.69v5.27Z"/><path class="cls-2" d="M49.52,58.65l5.18-34.3h6.16L66,58.65h-4.9l-.93-7H55.35l-.93,7ZM58.06,35.5l-.14-.89h-.28l-.14.89L56.05,46.33H59.5Z"/><path class="cls-2" d="M77.38,58.65,74.77,44.18H73.41V58.65h-5V24.34h5c6,0,8.59,3.41,8.59,9.89,0,3.41-.89,6.49-2.8,7.79l3.22,16.61Zm-4-19.13a3.5,3.5,0,0,0,2.38-.75c.75-.65,1.35-1.91,1.35-4.34s-.61-3.73-1.35-4.39a3.44,3.44,0,0,0-2.38-.7Z"/><path class="cls-1" d="M0,94.44V61.92H3.76c4.42,0,6.81.89,8.1,3.36s1.42,6.55,1.42,12.92-.18,10.4-1.42,12.87-3.67,3.36-8.1,3.36Zm4.78-4.78c1.64,0,2.57-.18,3.05-1.77a14.22,14.22,0,0,0,.44-3.45c0-1.55,0-3.63,0-6.28s0-4.73,0-6.28a14.9,14.9,0,0,0-.44-3.45c-.49-1.55-1.42-1.73-3.05-1.73Z"/><path class="cls-1" d="M28.89,87.76a8.84,8.84,0,0,1-.8,3.54,6.09,6.09,0,0,1-1.9,2.39,5.68,5.68,0,0,1-3.67,1.11,5.81,5.81,0,0,1-3.72-1.11,6,6,0,0,1-1.86-2.39,8.86,8.86,0,0,1-.8-3.54V68.6a8.82,8.82,0,0,1,.8-3.49,6.09,6.09,0,0,1,1.86-2.43,6.09,6.09,0,0,1,3.72-1.11,6,6,0,0,1,3.67,1.11,6.22,6.22,0,0,1,1.9,2.43,8.8,8.8,0,0,1,.8,3.49ZM24.11,68.6a3,3,0,0,0-.62-2,1.38,1.38,0,0,0-1-.35,1.48,1.48,0,0,0-1.42,1.19,3.39,3.39,0,0,0-.18,1.19V87.76a2.82,2.82,0,0,0,.66,2,1.27,1.27,0,0,0,.93.35A1.4,1.4,0,0,0,23.93,89a3.1,3.1,0,0,0,.18-1.19Z"/><path class="cls-1" d="M44.55,72.32l.13.31h.09l.13-.31,2.39-10.4H52L47.12,80.59V94.44H42.34V80.59L37.47,61.92h4.69Z"/><path class="cls-1" d="M66.49,87.76a8.84,8.84,0,0,1-.8,3.54,6.09,6.09,0,0,1-1.9,2.39,5.68,5.68,0,0,1-3.67,1.11,5.81,5.81,0,0,1-3.72-1.11,6,6,0,0,1-1.86-2.39,8.86,8.86,0,0,1-.8-3.54V68.6a8.82,8.82,0,0,1,.8-3.49,5.61,5.61,0,0,1,5.57-3.54,6,6,0,0,1,3.67,1.11,6.22,6.22,0,0,1,1.9,2.43,8.8,8.8,0,0,1,.8,3.49ZM61.72,68.6a3,3,0,0,0-.62-2,1.38,1.38,0,0,0-1-.35,1.48,1.48,0,0,0-1.42,1.19,3.39,3.39,0,0,0-.18,1.19V87.76a2.82,2.82,0,0,0,.66,2,1.27,1.27,0,0,0,.93.35A1.4,1.4,0,0,0,61.54,89a3.1,3.1,0,0,0,.18-1.19Z"/><path class="cls-1" d="M82.42,61.92V87.76a8.87,8.87,0,0,1-.8,3.54,6.09,6.09,0,0,1-1.9,2.39A5.68,5.68,0,0,1,76,94.79a5.81,5.81,0,0,1-3.72-1.11,6,6,0,0,1-1.86-2.39,8.86,8.86,0,0,1-.8-3.54V61.92h4.78V87.76a2.82,2.82,0,0,0,.66,2,1.27,1.27,0,0,0,.93.35A1.4,1.4,0,0,0,77.47,89a3.08,3.08,0,0,0,.18-1.19V61.92Z"/><path class="cls-1" d="M5.78,103.24a6.94,6.94,0,0,0-.23-2.07c-.2-.58-.52-1-1-1-.81,0-1.06.86-1.06,2.1a4.77,4.77,0,0,0,.78,2.27c.46.81,1.06,1.64,1.67,2.53a32.54,32.54,0,0,1,2,3.22,7.25,7.25,0,0,1,.92,3.31,6.64,6.64,0,0,1-.89,3.71A3.81,3.81,0,0,1,4.52,119a3.84,3.84,0,0,1-3.74-1.9A9,9,0,0,1,0,112.79l3-.29A8,8,0,0,0,3.31,115c.2.69.55,1.15,1.21,1.15.92,0,1.27-1,1.27-2.33A5.26,5.26,0,0,0,5,111.44c-.26-.4-.52-.83-.81-1.27-.6-.86-1.27-1.84-2-2.91A12.06,12.06,0,0,1,.69,104a5.66,5.66,0,0,1-.26-1.7A5.91,5.91,0,0,1,1.35,99a3.77,3.77,0,0,1,3.14-1.61,3.63,3.63,0,0,1,3.57,1.87A8.25,8.25,0,0,1,8.83,103Z"/><path class="cls-1" d="M10.5,97.58h3.11v21.14H10.5Z"/><path class="cls-1" d="M15.91,97.58H19a5.3,5.3,0,0,1,3.74,1.32,6.6,6.6,0,0,1,1.73,5,6.53,6.53,0,0,1-1.73,5A5.35,5.35,0,0,1,19,110.26v8.46H15.91ZM19,107.1c.95,0,1.55-.17,1.9-.66a4.23,4.23,0,0,0,.43-2.42,4.81,4.81,0,0,0-.43-2.53,2.07,2.07,0,0,0-1.9-.75Z"/><path class="cls-1" d="M30.47,118.72V97.58h2.45c2.88,0,4.43.58,5.26,2.19s.92,4.26.92,8.4-.12,6.76-.92,8.37-2.39,2.19-5.26,2.19Zm3.11-3.11c1.06,0,1.67-.12,2-1.15a9.25,9.25,0,0,0,.29-2.24c0-1,0-2.36,0-4.09s0-3.08,0-4.08a9.69,9.69,0,0,0-.29-2.24c-.32-1-.92-1.12-2-1.12Z"/><path class="cls-1" d="M40.3,118.72,43.5,97.58h3.8l3.19,21.14h-3l-.58-4.32h-3l-.58,4.32Zm5.26-14.27-.09-.55h-.17l-.09.55-.89,6.67h2.13Z"/><path class="cls-1" d="M51.93,97.58H55v21.14H51.93Z"/><path class="cls-1" d="M57.33,97.58h3.11v18.27h4.11v2.88H57.33Z"/><path class="cls-1" d="M68.9,104.34l.09.2H69l.09-.2,1.55-6.76h3l-3.16,12.14v9H67.46v-9L64.3,97.58h3Z"/><path class="cls-1" d="M76.9,113v-3.6a11,11,0,0,1,.63-3.8,14.11,14.11,0,0,1,1.29-2.56,6.12,6.12,0,0,0,.75-1.58,1.71,1.71,0,0,0-.12-.81.88.88,0,0,0-.83-.52,1.55,1.55,0,0,0-1.24.78,5.3,5.3,0,0,0-.6,1.27L74.28,101a6.94,6.94,0,0,1,1.35-2.16,3.91,3.91,0,0,1,3-1.41,3.47,3.47,0,0,1,3.11,1.61,4.87,4.87,0,0,1,.63,2.42,5.91,5.91,0,0,1-1.12,3.08c-.17.29-.35.6-.55.92a9.26,9.26,0,0,0-1,2.42,6.51,6.51,0,0,0-.17,1.52V113Zm-.17,2.5h3v3.19h-3Z"/></g></g></svg>