<svg xmlns="http://www.w3.org/2000/svg" viewBox="0 0 140.86 48.51"><defs><style>.cls-1{fill:#fff;}.cls-2{fill:#13b5ea;}</style></defs><title>Text_HowMuchSugar_300x250</title><g id="Layer_2" data-name="Layer 2"><g id="Layer_1-2" data-name="Layer 1"><path class="cls-1" d="M5.48,12.06H3.08v9.13H0V.23H3.08V8.9h2.4V.23H8.56v21H5.48Z"/><path class="cls-1" d="M18.85,16.88a5.7,5.7,0,0,1-.51,2.28,3.93,3.93,0,0,1-1.23,1.54,3.66,3.66,0,0,1-2.37.71,3.74,3.74,0,0,1-2.4-.71,3.84,3.84,0,0,1-1.2-1.54,5.71,5.71,0,0,1-.51-2.28V4.54a5.68,5.68,0,0,1,.51-2.25A3.92,3.92,0,0,1,12.35.71,3.92,3.92,0,0,1,14.74,0a3.83,3.83,0,0,1,2.37.71,4,4,0,0,1,1.23,1.57,5.67,5.67,0,0,1,.51,2.25ZM15.77,4.54a1.9,1.9,0,0,0-.4-1.31A.89.89,0,0,0,14.74,3a1,1,0,0,0-.91.77,2.19,2.19,0,0,0-.11.77V16.88a1.82,1.82,0,0,0,.43,1.31.82.82,0,0,0,.6.23.9.9,0,0,0,.91-.77,2,2,0,0,0,.11-.77Z"/><path class="cls-1" d="M25.35,21.19H23L20.13.23H23l1.23,10.89.06.68h.23l.09-.68L25.9.23h2.22l1.31,10.89.09.68h.23l.06-.68L31,.23h2.85l-2.82,21h-2.4l-1.43-9.92L27.06,10H27l-.17,1.23Z"/><path class="cls-1" d="M44.86,21.19,42.89,8l-.11-.88h-.17V21.19H39.76V.23h3.76l1.83,9.58.14,1.11h.06l.14-1.11L47.51.23h3.76v21H48.43V7.13h-.17L48.14,8l-2,13.18Z"/><path class="cls-1" d="M61.74.23V16.88a5.72,5.72,0,0,1-.51,2.28A3.93,3.93,0,0,1,60,20.71a3.66,3.66,0,0,1-2.37.71,3.75,3.75,0,0,1-2.4-.71A3.85,3.85,0,0,1,54,19.17a5.71,5.71,0,0,1-.51-2.28V.23h3.08V16.88A1.82,1.82,0,0,0,57,18.2a.82.82,0,0,0,.6.23.9.9,0,0,0,.91-.77,2,2,0,0,0,.11-.77V.23Z"/><path class="cls-1" d="M72,14v2.88a5.7,5.7,0,0,1-.51,2.28,3.93,3.93,0,0,1-1.23,1.54,3.66,3.66,0,0,1-2.37.71,3.74,3.74,0,0,1-2.4-.71,3.84,3.84,0,0,1-1.2-1.54,5.71,5.71,0,0,1-.51-2.28V4.54a5.68,5.68,0,0,1,.51-2.25A3.92,3.92,0,0,1,65.51.71,3.92,3.92,0,0,1,67.9,0a3.83,3.83,0,0,1,2.37.71A4,4,0,0,1,71.5,2.28,5.67,5.67,0,0,1,72,4.54V7.42H69.13V4.54a1.8,1.8,0,0,0-.46-1.31A1,1,0,0,0,67,3.77a3.1,3.1,0,0,0-.14.77V16.88a2,2,0,0,0,.48,1.31.82.82,0,0,0,.6.23A1,1,0,0,0,69,17.65a2,2,0,0,0,.11-.77V14Z"/><path class="cls-1" d="M79.34,12.06h-2.4v9.13H73.87V.23h3.08V8.9h2.4V.23h3.08v21H79.34Z"/><path class="cls-2" d="M94.2,5.85A6.88,6.88,0,0,0,94,3.79c-.2-.57-.51-1-1-1-.8,0-1.06.86-1.06,2.08a4.73,4.73,0,0,0,.77,2.25c.46.8,1.06,1.63,1.65,2.51a32.26,32.26,0,0,1,2,3.19,7.19,7.19,0,0,1,.91,3.28,6.59,6.59,0,0,1-.88,3.68,4.5,4.5,0,0,1-7.1-.29,8.94,8.94,0,0,1-.77-4.22l3-.29a7.92,7.92,0,0,0,.26,2.42c.2.68.54,1.14,1.2,1.14.91,0,1.25-1,1.25-2.31A5.21,5.21,0,0,0,93.4,14c-.26-.4-.51-.83-.8-1.25-.6-.86-1.25-1.83-1.94-2.88a12,12,0,0,1-1.51-3.25,5.61,5.61,0,0,1-.26-1.68,5.86,5.86,0,0,1,.91-3.31A3.74,3.74,0,0,1,92.92,0a3.6,3.6,0,0,1,3.54,1.85,8.17,8.17,0,0,1,.77,3.71Z"/><path class="cls-2" d="M107.06.23V16.88a5.72,5.72,0,0,1-.51,2.28,3.93,3.93,0,0,1-1.23,1.54,3.66,3.66,0,0,1-2.37.71,3.75,3.75,0,0,1-2.4-.71,3.85,3.85,0,0,1-1.2-1.54,5.71,5.71,0,0,1-.51-2.28V.23h3.08V16.88a1.82,1.82,0,0,0,.43,1.31.82.82,0,0,0,.6.23.9.9,0,0,0,.91-.77,2,2,0,0,0,.11-.77V.23Z"/><path class="cls-2" d="M114.25,7.76V4.54a1.9,1.9,0,0,0-.4-1.31.89.89,0,0,0-.63-.23,1,1,0,0,0-.91.77,2.19,2.19,0,0,0-.11.77v12.6a1.82,1.82,0,0,0,.43,1.31.82.82,0,0,0,.6.23.9.9,0,0,0,.91-.77,2,2,0,0,0,.11-.77V13.35H113v-2.6h4.31V21.19H115.5l-.37-1a3.07,3.07,0,0,1-2.4,1.23,3.12,3.12,0,0,1-2.2-.71,3.81,3.81,0,0,1-1.08-1.54,5.74,5.74,0,0,1-.34-2.28V4.54a5.68,5.68,0,0,1,.51-2.25,3.92,3.92,0,0,1,1.2-1.57,3.92,3.92,0,0,1,2.4-.71,3.83,3.83,0,0,1,2.37.71,4,4,0,0,1,1.23,1.57,5.67,5.67,0,0,1,.51,2.25V7.76Z"/><path class="cls-2" d="M118.73,21.19l3.17-21h3.76l3.17,21h-3l-.57-4.28h-3l-.57,4.28ZM123.94,7l-.09-.54h-.17L123.6,7l-.88,6.62h2.11Z"/><path class="cls-2" d="M135.75,21.19l-1.6-8.84h-.83v8.84h-3.08V.23h3.08c3.68,0,5.25,2.08,5.25,6,0,2.08-.54,4-1.71,4.76l2,10.15ZM133.33,9.5A2.14,2.14,0,0,0,134.78,9a3.35,3.35,0,0,0,.83-2.65,3.43,3.43,0,0,0-.83-2.68,2.1,2.1,0,0,0-1.45-.43Z"/><path class="cls-1" d="M0,48.28v-21H2.42c2.85,0,4.39.57,5.22,2.17s.91,4.22.91,8.33-.11,6.7-.91,8.3-2.37,2.17-5.22,2.17ZM3.08,45.2c1.06,0,1.65-.11,2-1.14a9.17,9.17,0,0,0,.29-2.22c0-1,0-2.34,0-4s0-3.05,0-4A9.61,9.61,0,0,0,5,31.52c-.31-1-.91-1.11-2-1.11Z"/><path class="cls-1" d="M18.62,44a5.7,5.7,0,0,1-.51,2.28,3.93,3.93,0,0,1-1.23,1.54,3.66,3.66,0,0,1-2.37.71,3.74,3.74,0,0,1-2.4-.71,3.84,3.84,0,0,1-1.2-1.54A5.71,5.71,0,0,1,10.41,44V31.63a5.68,5.68,0,0,1,.51-2.25,3.92,3.92,0,0,1,1.2-1.57,3.92,3.92,0,0,1,2.4-.71,3.83,3.83,0,0,1,2.37.71,4,4,0,0,1,1.23,1.57,5.67,5.67,0,0,1,.51,2.25ZM15.54,31.63a1.9,1.9,0,0,0-.4-1.31.89.89,0,0,0-.63-.23,1,1,0,0,0-.91.77,2.19,2.19,0,0,0-.11.77V44a1.82,1.82,0,0,0,.43,1.31.82.82,0,0,0,.6.23.9.9,0,0,0,.91-.77,2,2,0,0,0,.11-.77Z"/><path class="cls-1" d="M28.72,34l.09.2h.06l.09-.2,1.54-6.7h3l-3.14,12v8.93H27.29V39.36l-3.14-12h3Z"/><path class="cls-1" d="M42.86,44a5.7,5.7,0,0,1-.51,2.28,3.93,3.93,0,0,1-1.23,1.54,3.66,3.66,0,0,1-2.37.71,3.74,3.74,0,0,1-2.4-.71,3.84,3.84,0,0,1-1.2-1.54A5.71,5.71,0,0,1,34.65,44V31.63a5.68,5.68,0,0,1,.51-2.25,3.61,3.61,0,0,1,3.59-2.28,3.83,3.83,0,0,1,2.37.71,4,4,0,0,1,1.23,1.57,5.67,5.67,0,0,1,.51,2.25ZM39.78,31.63a1.9,1.9,0,0,0-.4-1.31.89.89,0,0,0-.63-.23,1,1,0,0,0-.91.77,2.19,2.19,0,0,0-.11.77V44a1.82,1.82,0,0,0,.43,1.31.82.82,0,0,0,.6.23.9.9,0,0,0,.91-.77,2,2,0,0,0,.11-.77Z"/><path class="cls-1" d="M53.13,27.32V44a5.72,5.72,0,0,1-.51,2.28,3.93,3.93,0,0,1-1.23,1.54,3.66,3.66,0,0,1-2.37.71,3.75,3.75,0,0,1-2.4-.71,3.85,3.85,0,0,1-1.2-1.54A5.71,5.71,0,0,1,44.92,44V27.32H48V44a1.82,1.82,0,0,0,.43,1.31.82.82,0,0,0,.6.23.9.9,0,0,0,.91-.77,2,2,0,0,0,.11-.77V27.32Z"/><path class="cls-1" d="M64.88,32.94a6.88,6.88,0,0,0-.23-2.05c-.2-.57-.51-1-1-1-.8,0-1.06.86-1.06,2.08a4.73,4.73,0,0,0,.77,2.25c.46.8,1.06,1.63,1.65,2.51A32.26,32.26,0,0,1,67,40a7.19,7.19,0,0,1,.91,3.28A6.59,6.59,0,0,1,67,46.92a3.78,3.78,0,0,1-3.39,1.6,3.81,3.81,0,0,1-3.71-1.88,8.94,8.94,0,0,1-.77-4.22l3-.29a7.92,7.92,0,0,0,.26,2.42c.2.68.54,1.14,1.2,1.14.91,0,1.25-1,1.25-2.31a5.21,5.21,0,0,0-.8-2.31c-.26-.4-.51-.83-.8-1.25C62.69,39,62,38,61.35,36.93a12,12,0,0,1-1.51-3.25A5.61,5.61,0,0,1,59.58,32a5.86,5.86,0,0,1,.91-3.31,3.74,3.74,0,0,1,3.11-1.6,3.6,3.6,0,0,1,3.54,1.85,8.17,8.17,0,0,1,.77,3.71Z"/><path class="cls-1" d="M69.56,27.32h3.08v21H69.56Z"/><path class="cls-1" d="M74.92,27.32H78a5.25,5.25,0,0,1,3.71,1.31,6.54,6.54,0,0,1,1.71,5,6.47,6.47,0,0,1-1.71,4.93A5.3,5.3,0,0,1,78,39.9v8.38H74.92ZM78,36.76c.94,0,1.54-.17,1.88-.66a4.2,4.2,0,0,0,.43-2.4,4.77,4.77,0,0,0-.43-2.51A2.05,2.05,0,0,0,78,30.46Z"/><path class="cls-1" d="M89.35,48.28v-21h2.42c2.85,0,4.39.57,5.22,2.17s.91,4.22.91,8.33-.11,6.7-.91,8.3-2.37,2.17-5.22,2.17Zm3.08-3.08c1.06,0,1.65-.11,2-1.14a9.17,9.17,0,0,0,.29-2.22c0-1,0-2.34,0-4s0-3.05,0-4a9.61,9.61,0,0,0-.29-2.22c-.31-1-.91-1.11-2-1.11Z"/><path class="cls-1" d="M99.1,48.28l3.17-21H106l3.17,21h-3L105.64,44h-3l-.57,4.28Zm5.22-14.15-.09-.54h-.17l-.09.54-.88,6.62h2.11Z"/><path class="cls-1" d="M110.63,27.32h3.08v21h-3.08Z"/><path class="cls-1" d="M116,27.32h3.08V45.43h4.08v2.85H116Z"/><path class="cls-1" d="M127.45,34l.09.2h.06l.09-.2,1.54-6.7h3l-3.14,12v8.93H126V39.36l-3.14-12h3Z"/><path class="cls-1" d="M135.38,42.64V39.07a10.9,10.9,0,0,1,.63-3.76,14,14,0,0,1,1.28-2.54A6.07,6.07,0,0,0,138,31.2a1.69,1.69,0,0,0-.11-.8.87.87,0,0,0-.83-.51,1.54,1.54,0,0,0-1.23.77,5.26,5.26,0,0,0-.6,1.25l-2.48-1.17a6.88,6.88,0,0,1,1.34-2.14,3.87,3.87,0,0,1,3-1.4,3.44,3.44,0,0,1,3.08,1.6,4.83,4.83,0,0,1,.63,2.4,5.86,5.86,0,0,1-1.11,3.05c-.17.29-.34.6-.54.91a9.18,9.18,0,0,0-1,2.4,6.45,6.45,0,0,0-.17,1.51v3.56Zm-.17,2.48h3v3.17h-3Z"/></g></g></svg>