<svg xmlns="http://www.w3.org/2000/svg" viewBox="0 0 370.41 27.76"><defs><style>.cls-1{fill:#fff;}.cls-2{fill:#40b4e5;}</style></defs><title>Text_HowMuchSugar_728x90</title><g id="Layer_2" data-name="Layer 2"><g id="Layer_1-2" data-name="Layer 1"><path class="cls-1" d="M7.1,15.63H4V27.46H0V.3H4V11.53H7.1V.3h4V27.46h-4Z"/><path class="cls-1" d="M24.43,21.88a7.4,7.4,0,0,1-.67,3,5.08,5.08,0,0,1-1.59,2,4.74,4.74,0,0,1-3.07.92,4.86,4.86,0,0,1-3.1-.92,5,5,0,0,1-1.55-2,7.4,7.4,0,0,1-.67-3v-16A7.37,7.37,0,0,1,14.45,3,5.09,5.09,0,0,1,16,.92,5.09,5.09,0,0,1,19.11,0a5,5,0,0,1,3.07.92,5.19,5.19,0,0,1,1.59,2,7.37,7.37,0,0,1,.67,2.92Zm-4-16a2.46,2.46,0,0,0-.52-1.7,1.15,1.15,0,0,0-.81-.3,1.23,1.23,0,0,0-1.18,1,2.83,2.83,0,0,0-.15,1v16a2.35,2.35,0,0,0,.55,1.7,1.06,1.06,0,0,0,.78.3,1.17,1.17,0,0,0,1.18-1,2.59,2.59,0,0,0,.15-1Z"/><path class="cls-1" d="M32.86,27.46h-3.1L26.1.3h3.7l1.59,14.12.07.89h.3l.11-.89L33.56.3h2.88l1.7,14.12.11.89h.3l.07-.89L40.21.3h3.7L40.25,27.46h-3.1L35.3,14.6,35.08,13h-.15l-.22,1.59Z"/><path class="cls-1" d="M58.14,27.46,55.59,10.39l-.15-1.15h-.22V27.46h-3.7V.3H56.4l2.37,12.42L59,14.16H59l.19-1.44L61.58.3h4.88V27.46h-3.7V9.24h-.22l-.15,1.15L59.84,27.46Z"/><path class="cls-1" d="M80,.3V21.88a7.4,7.4,0,0,1-.67,3,5.08,5.08,0,0,1-1.59,2,4.74,4.74,0,0,1-3.07.92,4.86,4.86,0,0,1-3.1-.92,5,5,0,0,1-1.55-2,7.4,7.4,0,0,1-.67-3V.3h4V21.88a2.36,2.36,0,0,0,.55,1.7,1.06,1.06,0,0,0,.78.3,1.17,1.17,0,0,0,1.18-1,2.58,2.58,0,0,0,.15-1V.3Z"/><path class="cls-1" d="M93.33,18.15v3.73a7.4,7.4,0,0,1-.67,3,5.08,5.08,0,0,1-1.59,2,4.74,4.74,0,0,1-3.07.92,4.86,4.86,0,0,1-3.1-.92,5,5,0,0,1-1.55-2,7.4,7.4,0,0,1-.67-3v-16A7.37,7.37,0,0,1,83.35,3a5.09,5.09,0,0,1,1.55-2A5.09,5.09,0,0,1,88,0a5,5,0,0,1,3.07.92,5.19,5.19,0,0,1,1.59,2,7.37,7.37,0,0,1,.67,2.92V9.61H89.6V5.88A2.33,2.33,0,0,0,89,4.18a1.34,1.34,0,0,0-2.14.7,4,4,0,0,0-.18,1v16a2.55,2.55,0,0,0,.63,1.7,1.06,1.06,0,0,0,.78.3,1.29,1.29,0,0,0,1.37-1,2.58,2.58,0,0,0,.15-1V18.15Z"/><path class="cls-1" d="M102.83,15.63h-3.1V27.46h-4V.3h4V11.53h3.1V.3h4V27.46h-4Z"/><path class="cls-2" d="M122.09,7.58a8.91,8.91,0,0,0-.3-2.66c-.26-.74-.67-1.26-1.29-1.26-1,0-1.37,1.11-1.37,2.7a6.13,6.13,0,0,0,1,2.92c.59,1,1.37,2.11,2.14,3.25a41.82,41.82,0,0,1,2.55,4.14A9.32,9.32,0,0,1,126,20.92a8.54,8.54,0,0,1-1.15,4.77,4.9,4.9,0,0,1-4.4,2.07c-2.55,0-4-1-4.8-2.44a11.59,11.59,0,0,1-1-5.47l3.92-.37a10.26,10.26,0,0,0,.33,3.14c.26.89.7,1.48,1.55,1.48,1.18,0,1.63-1.26,1.63-3a6.75,6.75,0,0,0-1-3c-.33-.52-.67-1.07-1-1.63-.78-1.11-1.63-2.37-2.51-3.73a15.49,15.49,0,0,1-2-4.21,7.26,7.26,0,0,1-.33-2.18,7.59,7.59,0,0,1,1.18-4.29,4.84,4.84,0,0,1,4-2.07A4.67,4.67,0,0,1,125,2.4a10.6,10.6,0,0,1,1,4.8Z"/><path class="cls-2" d="M138.76.3V21.88a7.4,7.4,0,0,1-.67,3,5.08,5.08,0,0,1-1.59,2,4.74,4.74,0,0,1-3.07.92,4.86,4.86,0,0,1-3.1-.92,5,5,0,0,1-1.55-2,7.41,7.41,0,0,1-.67-3V.3h4V21.88a2.35,2.35,0,0,0,.55,1.7,1.06,1.06,0,0,0,.78.3,1.17,1.17,0,0,0,1.18-1,2.58,2.58,0,0,0,.15-1V.3Z"/><path class="cls-2" d="M148.07,10.05V5.88a2.46,2.46,0,0,0-.52-1.7,1.15,1.15,0,0,0-.81-.3,1.23,1.23,0,0,0-1.18,1,2.83,2.83,0,0,0-.15,1V22.21a2.35,2.35,0,0,0,.55,1.7,1.06,1.06,0,0,0,.78.3,1.17,1.17,0,0,0,1.18-1,2.59,2.59,0,0,0,.15-1V17.3h-1.59V13.93h5.58V27.46H149.7l-.48-1.29a4,4,0,0,1-3.1,1.59,4,4,0,0,1-2.85-.92,4.93,4.93,0,0,1-1.4-2,7.43,7.43,0,0,1-.44-3v-16A7.36,7.36,0,0,1,142.09,3a5.09,5.09,0,0,1,1.55-2,5.09,5.09,0,0,1,3.1-.92,5,5,0,0,1,3.07.92,5.19,5.19,0,0,1,1.59,2,7.37,7.37,0,0,1,.67,2.92v4.18Z"/><path class="cls-2" d="M153.88,27.46,158,.3h4.88L167,27.46h-3.88l-.74-5.54H158.5l-.74,5.54Zm6.76-18.33-.11-.7h-.22l-.11.7-1.15,8.57h2.73Z"/><path class="cls-2" d="M175.94,27.46,173.88,16H172.8V27.46h-4V.3h4c4.77,0,6.8,2.7,6.8,7.83,0,2.7-.7,5.14-2.22,6.17l2.55,13.16ZM172.8,12.31a2.77,2.77,0,0,0,1.88-.59c.59-.52,1.07-1.52,1.07-3.44s-.48-3-1.07-3.47a2.73,2.73,0,0,0-1.88-.55Z"/><path class="cls-1" d="M187.85,27.46V.3H191c3.7,0,5.69.74,6.76,2.81s1.18,5.47,1.18,10.79-.15,8.68-1.18,10.75-3.07,2.81-6.76,2.81Zm4-4c1.37,0,2.14-.15,2.55-1.48a11.88,11.88,0,0,0,.37-2.88c0-1.29,0-3,0-5.25s0-4,0-5.25a12.45,12.45,0,0,0-.37-2.88c-.41-1.29-1.18-1.44-2.55-1.44Z"/><path class="cls-1" d="M212,21.88a7.4,7.4,0,0,1-.67,3,5.08,5.08,0,0,1-1.59,2,4.74,4.74,0,0,1-3.07.92,4.86,4.86,0,0,1-3.1-.92,5,5,0,0,1-1.55-2,7.4,7.4,0,0,1-.67-3v-16A7.37,7.37,0,0,1,202,3a5.09,5.09,0,0,1,1.55-2,5.09,5.09,0,0,1,3.1-.92,5,5,0,0,1,3.07.92,5.19,5.19,0,0,1,1.59,2A7.37,7.37,0,0,1,212,5.88Zm-4-16a2.46,2.46,0,0,0-.52-1.7,1.15,1.15,0,0,0-.81-.3,1.23,1.23,0,0,0-1.18,1,2.83,2.83,0,0,0-.15,1v16a2.35,2.35,0,0,0,.55,1.7,1.06,1.06,0,0,0,.78.3,1.17,1.17,0,0,0,1.18-1,2.59,2.59,0,0,0,.15-1Z"/><path class="cls-1" d="M225.07,9l.11.26h.07l.11-.26,2-8.68h3.92l-4.06,15.6V27.46h-4V15.89L219.16.3h3.92Z"/><path class="cls-1" d="M243.4,21.88a7.4,7.4,0,0,1-.67,3,5.08,5.08,0,0,1-1.59,2,4.74,4.74,0,0,1-3.07.92,4.86,4.86,0,0,1-3.1-.92,5,5,0,0,1-1.55-2,7.39,7.39,0,0,1-.67-3v-16A7.36,7.36,0,0,1,233.42,3a5.09,5.09,0,0,1,1.55-2,5.09,5.09,0,0,1,3.1-.92,5,5,0,0,1,3.07.92,5.19,5.19,0,0,1,1.59,2,7.37,7.37,0,0,1,.67,2.92Zm-4-16a2.46,2.46,0,0,0-.52-1.7,1.15,1.15,0,0,0-.81-.3,1.23,1.23,0,0,0-1.18,1,2.83,2.83,0,0,0-.15,1v16a2.35,2.35,0,0,0,.55,1.7,1.06,1.06,0,0,0,.78.3,1.17,1.17,0,0,0,1.18-1,2.59,2.59,0,0,0,.15-1Z"/><path class="cls-1" d="M256.71.3V21.88a7.4,7.4,0,0,1-.67,3,5.08,5.08,0,0,1-1.59,2,4.74,4.74,0,0,1-3.07.92,4.86,4.86,0,0,1-3.1-.92,5,5,0,0,1-1.55-2,7.4,7.4,0,0,1-.67-3V.3h4V21.88a2.36,2.36,0,0,0,.55,1.7,1.06,1.06,0,0,0,.78.3,1.17,1.17,0,0,0,1.18-1,2.58,2.58,0,0,0,.15-1V.3Z"/><path class="cls-1" d="M271.94,7.58a8.91,8.91,0,0,0-.3-2.66c-.26-.74-.67-1.26-1.29-1.26-1,0-1.37,1.11-1.37,2.7a6.13,6.13,0,0,0,1,2.92c.59,1,1.37,2.11,2.14,3.25a41.82,41.82,0,0,1,2.55,4.14,9.32,9.32,0,0,1,1.18,4.25,8.54,8.54,0,0,1-1.15,4.77,4.9,4.9,0,0,1-4.4,2.07c-2.55,0-4-1-4.8-2.44a11.59,11.59,0,0,1-1-5.47l3.92-.37a10.26,10.26,0,0,0,.33,3.14c.26.89.7,1.48,1.55,1.48,1.18,0,1.63-1.26,1.63-3a6.75,6.75,0,0,0-1-3c-.33-.52-.67-1.07-1-1.63-.78-1.11-1.63-2.37-2.51-3.73a15.49,15.49,0,0,1-2-4.21,7.26,7.26,0,0,1-.33-2.18,7.59,7.59,0,0,1,1.18-4.29,4.84,4.84,0,0,1,4-2.07,4.67,4.67,0,0,1,4.58,2.4,10.6,10.6,0,0,1,1,4.8Z"/><path class="cls-1" d="M278,.3h4V27.46h-4Z"/><path class="cls-1" d="M285,.3h4a6.81,6.81,0,0,1,4.8,1.7C295.08,3.25,296,5.32,296,8.43s-.89,5.14-2.22,6.39a6.87,6.87,0,0,1-4.8,1.77V27.46h-4Zm4,12.23c1.22,0,2-.22,2.44-.85a5.44,5.44,0,0,0,.55-3.1,6.18,6.18,0,0,0-.55-3.25,2.66,2.66,0,0,0-2.44-1Z"/><path class="cls-1" d="M303.65,27.46V.3h3.14c3.7,0,5.69.74,6.76,2.81s1.18,5.47,1.18,10.79-.15,8.68-1.18,10.75-3.07,2.81-6.76,2.81Zm4-4c1.37,0,2.14-.15,2.55-1.48a11.88,11.88,0,0,0,.37-2.88c0-1.29,0-3,0-5.25s0-4,0-5.25a12.45,12.45,0,0,0-.37-2.88c-.41-1.29-1.18-1.44-2.55-1.44Z"/><path class="cls-1" d="M316.29,27.46,320.4.3h4.88l4.1,27.16H325.5l-.74-5.54h-3.84l-.74,5.54Zm6.76-18.33-.11-.7h-.22l-.11.7-1.15,8.57h2.73Z"/><path class="cls-1" d="M331.23.3h4V27.46h-4Z"/><path class="cls-1" d="M338.18.3h4V23.76h5.28v3.7h-9.28Z"/><path class="cls-1" d="M353,9l.11.26h.07l.11-.26,2-8.68h3.92l-4.06,15.6V27.46h-4V15.89L347.12.3H351Z"/><path class="cls-1" d="M363.31,20.14V15.52a14.14,14.14,0,0,1,.81-4.88,18.13,18.13,0,0,1,1.66-3.29,7.86,7.86,0,0,0,1-2,2.19,2.19,0,0,0-.15-1,1.13,1.13,0,0,0-1.07-.67,2,2,0,0,0-1.59,1,6.85,6.85,0,0,0-.78,1.63l-3.22-1.52A8.92,8.92,0,0,1,361.69,2,5,5,0,0,1,365.6.15a4.46,4.46,0,0,1,4,2.07,6.26,6.26,0,0,1,.81,3.1,7.6,7.6,0,0,1-1.44,4c-.22.37-.44.78-.7,1.18a11.86,11.86,0,0,0-1.29,3.1,8.36,8.36,0,0,0-.22,2v4.62Zm-.22,3.22H367v4.1h-3.88Z"/></g></g></svg>