<svg xmlns="http://www.w3.org/2000/svg" viewBox="0 0 39.9 44.58"><defs><style>.cls-1{fill:#fff;}</style></defs><title>Text_UP</title><g id="Layer_2" data-name="Layer 2"><g id="Layer_1-2" data-name="Layer 1"><path class="cls-1" d="M17.28,0V35a12,12,0,0,1-1.08,4.8,8.26,8.26,0,0,1-2.58,3.24,7.7,7.7,0,0,1-5,1.5,7.88,7.88,0,0,1-5-1.5,8.09,8.09,0,0,1-2.52-3.24A12,12,0,0,1,0,35V0H6.48V35a3.82,3.82,0,0,0,.9,2.76,1.72,1.72,0,0,0,1.26.48,1.89,1.89,0,0,0,1.92-1.62A4.19,4.19,0,0,0,10.8,35V0Z"/><path class="cls-1" d="M22,0H28.5a11,11,0,0,1,7.8,2.76c2.16,2,3.6,5.4,3.6,10.44s-1.44,8.34-3.6,10.38a11.16,11.16,0,0,1-7.8,2.88V44.1H22ZM28.5,19.86c2,0,3.24-.36,4-1.38s.9-2.58.9-5-.18-4.2-.9-5.28-2-1.56-4-1.56Z"/></g></g></svg>