<svg xmlns="http://www.w3.org/2000/svg" viewBox="0 0 65.3 34.22"><defs><style>.cls-1{fill:#fff;}</style></defs><title>Text_ADDS</title><g id="Layer_2" data-name="Layer 2"><g id="Layer_1-2" data-name="Layer 1"><path class="cls-1" d="M0,33.86,5.06.37h6l5.06,33.49H11.35L10.43,27H5.7l-.91,6.83Zm8.34-22.6-.14-.87H7.93l-.14.87L6.38,21.83H9.75Z"/><path class="cls-1" d="M18.41,33.86V.37h3.87c4.56,0,7,.91,8.34,3.46s1.46,6.74,1.46,13.31-.18,10.71-1.46,13.26-3.78,3.46-8.34,3.46Zm4.92-4.92c1.69,0,2.64-.18,3.14-1.82a14.66,14.66,0,0,0,.46-3.55c0-1.59,0-3.74,0-6.47s0-4.88,0-6.47a15.37,15.37,0,0,0-.46-3.55C26,5.47,25,5.29,23.33,5.29Z"/><path class="cls-1" d="M35.36,33.86V.37h3.87c4.56,0,7,.91,8.34,3.46S49,10.57,49,17.13s-.18,10.71-1.46,13.26-3.78,3.46-8.34,3.46Zm4.92-4.92c1.69,0,2.64-.18,3.14-1.82a14.66,14.66,0,0,0,.46-3.55c0-1.59,0-3.74,0-6.47s0-4.88,0-6.47a15.37,15.37,0,0,0-.46-3.55c-.5-1.59-1.46-1.78-3.14-1.78Z"/><path class="cls-1" d="M60.47,9.34a11,11,0,0,0-.36-3.28c-.32-.91-.82-1.55-1.59-1.55-1.28,0-1.69,1.37-1.69,3.33a7.56,7.56,0,0,0,1.23,3.6c.73,1.28,1.69,2.6,2.64,4a51.47,51.47,0,0,1,3.14,5.1,11.49,11.49,0,0,1,1.46,5.24,10.53,10.53,0,0,1-1.41,5.88,6,6,0,0,1-5.42,2.55c-3.14,0-4.92-1.18-5.92-3a14.3,14.3,0,0,1-1.23-6.74L56.14,24a12.64,12.64,0,0,0,.41,3.87c.32,1.09.87,1.82,1.91,1.82,1.46,0,2-1.55,2-3.69a8.32,8.32,0,0,0-1.28-3.69c-.41-.64-.82-1.32-1.28-2-1-1.37-2-2.92-3.1-4.6a19.1,19.1,0,0,1-2.41-5.19A9,9,0,0,1,52,7.84a9.36,9.36,0,0,1,1.46-5.29,6,6,0,0,1,5-2.55c3,0,4.69,1.18,5.65,3A13.07,13.07,0,0,1,65.3,8.89Z"/></g></g></svg>